Y:\Users\EMiller\ForSelim\Mono_v2_HybridSims\subject10walking1\OpenSimData\Dynamics\walking1\GRF_resultant_walking1_case_mono_2sphereshift.mot
version=1
nRows=10
nColumns=19
inDegrees=yes
endheader 
time	ground_force_right_vx	ground_force_right_vy	ground_force_right_vz	ground_force_right_px	ground_force_right_py	ground_force_right_pz	ground_torque_right_x	ground_torque_right_y	ground_torque_right_z	ground_force_left_vx	ground_force_left_vy	ground_force_left_vz	ground_force_left_px	ground_force_left_py	ground_force_left_pz	ground_torque_left_x	ground_torque_left_y	ground_torque_left_z	
          0.31000000	          1.80831228	        434.41416504	        -12.57220244	          0.20662221	          0.00000000	         -0.18157481	          0.00000000	          1.06508056	          0.00000000	         -5.70825639	          1.62278234	          0.26633220	          0.37922885	          0.00000000	         -0.29484968	          0.00000000	          0.00003914	          0.00000000	
          0.32000000	          2.28233636	        438.63900412	        -15.03260979	          0.21002385	          0.00000000	         -0.18201989	          0.00000000	          1.35522279	          0.00000000	         -0.55052377	          0.15839764	          0.02011235	          0.40744725	          0.00000000	         -0.29379065	          0.00000000	          0.00006151	          0.00000000	
          0.33000000	          6.16752868	        451.79580392	        -16.01393056	          0.21433518	          0.00000000	         -0.18273707	          0.00000000	          1.74263177	          0.00000000	         -0.28221246	          0.08179017	          0.00750206	          0.41739145	          0.00000000	         -0.29214035	          0.00000000	         -0.00000200	          0.00000000	
          0.34000000	         10.25661120	        464.23368882	        -17.99030290	          0.21830848	          0.00000000	         -0.18356924	          0.00000000	          1.87237003	          0.00000000	         -0.15162401	          0.04453566	          0.00211922	          0.44480754	          0.00000000	         -0.30220915	          0.00000000	         -0.00000340	          0.00000000	
          0.35000000	         14.10969934	        482.76392850	        -20.55107802	          0.22199796	          0.00000000	         -0.18439892	          0.00000000	          2.21027070	          0.00000000	         -0.58064174	          0.17343496	         -0.00030809	          0.37886633	          0.00000000	         -0.30876523	          0.00000000	         -0.00000943	          0.00000000	
          0.36000000	         17.65486542	        504.73393864	        -23.63588401	          0.22552717	          0.00000000	         -0.18425626	          0.00000000	         -1.26880793	          0.00000000	         -5.09567019	          1.55218860	         -0.05697193	          0.40470911	          0.00000000	         -0.30656160	          0.00000000	         -0.00002248	          0.00000000	
          0.37000000	         20.22936255	        527.20970615	        -26.77081168	          0.22882211	          0.00000000	         -0.18429034	          0.00000000	         -0.40373263	          0.00000000	        -14.51703748	          4.53973569	         -0.32063208	          0.44338932	          0.00000000	         -0.30594869	          0.00000000	         -0.00001149	          0.00000000	
          0.38000000	         23.33273872	        548.02925813	        -30.54084049	          0.23231815	          0.00000000	         -0.18394164	          0.00000000	         -0.05003287	          0.00000000	        -17.28145329	          5.61875868	         -0.53855299	          0.48477304	          0.00000000	         -0.30522668	          0.00000000	         -0.00000114	          0.00000000	
          0.39000000	         27.54690574	        568.12611135	        -34.40761212	          0.23582351	          0.00000000	         -0.18364535	          0.00000000	          2.40559703	          0.00000000	        -13.55526691	          4.61643143	         -0.54348058	          0.52625013	          0.00000000	         -0.30422934	          0.00000000	          0.00000000	          0.00000000	
          0.40000000	         32.22136022	        588.16744581	        -38.11948264	          0.23896221	          0.00000000	         -0.18309058	          0.00000000	          4.62335757	          0.00000000	         -8.51150272	          3.04639397	         -0.39486257	          0.56653588	          0.00000000	         -0.30300154	          0.00000000	         -0.00000000	          0.00000000	
